<?xml version="1.0" standalone="no"?>
<!DOCTYPE svg PUBLIC "-//W3C//DTD SVG 20010904//EN"
 "http://www.w3.org/TR/2001/REC-SVG-20010904/DTD/svg10.dtd">
<svg version="1.0" xmlns="http://www.w3.org/2000/svg"
 width="1024.000000pt" height="1024.000000pt" viewBox="0 0 1024.000000 1024.000000"
 preserveAspectRatio="xMidYMid meet">

<g transform="translate(0.000000,1024.000000) scale(0.100000,-0.100000)"
fill="#000000" stroke="none">
<path d="M1800 5360 l0 -2360 625 0 625 0 0 805 0 805 335 0 335 0 0 -245 0
-245 305 0 305 0 0 -270 0 -270 325 0 325 0 0 -290 0 -290 640 0 640 0 0 375
0 375 -310 0 -310 0 0 275 0 275 -315 0 -315 0 0 265 0 265 315 0 315 0 0 270
0 270 310 0 310 0 0 870 0 870 -310 0 -310 0 0 305 0 305 -1920 0 -1920 0 0
-2360z m3180 785 l0 -675 -965 0 -965 0 0 675 0 675 965 0 965 0 0 -675z"/>
<path d="M6900 3650 l0 -650 630 0 630 0 0 650 0 650 -630 0 -630 0 0 -650z"/>
</g>
</svg>
